<?xml version="1.0" encoding="UTF-8"?>
<svg width="9px" height="12px" viewBox="0 0 9 12" version="1.1" xmlns="http://www.w3.org/2000/svg" xmlns:xlink="http://www.w3.org/1999/xlink">
    <!-- Generator: Sketch 56.3 (81716) - https://sketch.com -->
    <title>arrow-button-right</title>
    <desc>Created with Sketch.</desc>
    <g id="Version-1" stroke="none" stroke-width="1" fill="none" fill-rule="evenodd">
        <g id="Desktop" transform="translate(-343.000000, -243.000000)" fill="#D1CEE8" fill-rule="nonzero">
            <g id="arrow-button-right" transform="translate(343.000000, 243.000000)">
                <path d="M2.01936,11.40048 L8.00544,6.12816 L8.00544,6.12816 C8.10610184,6.0316559 8.16301604,5.89824837 8.16301604,5.7588 C8.16301604,5.61935163 8.10610184,5.4859441 8.00544,5.38944 L2.01936,0.11952 C1.92341657,0.0343619477 1.79704009,-0.00824750209 1.66912084,0.00143238457 C1.54120159,0.0111122712 1.42267614,0.0722539044 1.34064,0.17088 L0.59328,1.05888 C0.419582628,1.2649092 0.443301662,1.57218822 0.64656,1.74912 L5.184,5.66832 C5.21049221,5.69111639 5.22572945,5.72432985 5.22572945,5.75928 C5.22572945,5.79423015 5.21049221,5.82744361 5.184,5.85024 L0.648,9.77088 C0.549771997,9.8562023 0.489504218,9.97708324 0.48048,10.10688 C0.468968122,10.2360022 0.510172814,10.3642908 0.59472,10.46256 L1.34256,11.35104 C1.42474802,11.4494305 1.54323664,11.5103968 1.67107241,11.5200703 C1.79890819,11.5297439 1.92522187,11.4873023 2.02128,11.4024 L2.01936,11.40048 Z" id="Path"></path>
            </g>
        </g>
    </g>
</svg>