<?xml version="1.0" encoding="UTF-8"?>
<svg width="18px" height="24px" viewBox="0 0 18 24" version="1.1" xmlns="http://www.w3.org/2000/svg" xmlns:xlink="http://www.w3.org/1999/xlink">
    <!-- Generator: Sketch 56.3 (81716) - https://sketch.com -->
    <title>design-tool-pencil-ruler</title>
    <desc>Created with Sketch.</desc>
    <g id="Version-1" stroke="none" stroke-width="1" fill="none" fill-rule="evenodd">
        <g id="Desktop" transform="translate(-128.000000, -237.000000)" fill="#D1CEE8" fill-rule="nonzero">
            <g id="Group" transform="translate(128.000000, 237.000000)">
                <g id="design-tool-pencil-ruler">
                    <rect id="Rectangle" x="2.75" y="7" width="1.5" height="12.25" rx="0.25"></rect>
                    <rect id="Rectangle" x="5.25" y="7" width="1.5" height="12.25" rx="0.25"></rect>
                    <rect id="Rectangle" x="0.25" y="7" width="1.5" height="12.25" rx="0.25"></rect>
                    <path d="M6.3,6.00000057 C6.38598582,6.00018293 6.46603151,5.95616425 6.51193215,5.88345438 C6.5578328,5.81074451 6.56314615,5.71954842 6.526,5.642 L3.951,0.283 C3.85722964,0.123493383 3.68602768,0.0255448922 3.501,0.0255448922 C3.31597232,0.0255448922 3.14477036,0.123493383 3.051,0.283 L0.478,5.642 C0.441150061,5.7189096 0.446047639,5.80929827 0.49099191,5.88177597 C0.53593618,5.95425366 0.614726244,5.99882074 0.7,6.00000057 L6.3,6.00000057 Z" id="Path"></path>
                    <path d="M0.5,20.25 C0.361928813,20.25 0.25,20.3619288 0.25,20.5 L0.25,20.75 C0.25,22.5449254 1.70507456,24 3.5,24 C5.29492544,24 6.75,22.5449254 6.75,20.75 L6.75,20.5 C6.75,20.3619288 6.63807119,20.25 6.5,20.25 L0.5,20.25 Z" id="Path"></path>
                    <path d="M16.25,0 L11.25,0 C10.4215729,0 9.75,0.671572875 9.75,1.5 L9.75,2.75 C9.75,2.88807119 9.86192881,3 10,3 L11.75,3 C12.0261424,3 12.25,3.22385763 12.25,3.5 C12.25,3.77614237 12.0261424,4 11.75,4 L10,4 C9.86192881,4 9.75,4.11192881 9.75,4.25 L9.75,6.75 C9.75,6.88807119 9.86192881,7 10,7 L11.75,7 C12.0261424,7 12.25,7.22385763 12.25,7.5 C12.25,7.77614237 12.0261424,8 11.75,8 L10,8 C9.86192881,8 9.75,8.11192881 9.75,8.25 L9.75,10.75 C9.75,10.8880712 9.86192881,11 10,11 L11.75,11 C12.0261424,11 12.25,11.2238576 12.25,11.5 C12.25,11.7761424 12.0261424,12 11.75,12 L10,12 C9.86192881,12 9.75,12.1119288 9.75,12.25 L9.75,14.75 C9.75,14.8880712 9.86192881,15 10,15 L11.75,15 C12.0261424,15 12.25,15.2238576 12.25,15.5 C12.25,15.7761424 12.0261424,16 11.75,16 L10,16 C9.86192881,16 9.75,16.1119288 9.75,16.25 L9.75,22.5 C9.75,23.3284271 10.4215729,24 11.25,24 L16.25,24 C17.0784271,24 17.75,23.3284271 17.75,22.5 L17.75,1.5 C17.75,0.671572875 17.0784271,0 16.25,0 Z M13.75,19.5 C14.4403559,19.5 15,20.0596441 15,20.75 C15,21.4403559 14.4403559,22 13.75,22 C13.0596441,22 12.5,21.4403559 12.5,20.75 C12.5011012,20.0601007 13.0601007,19.5011012 13.75,19.5 L13.75,19.5 Z" id="Shape"></path>
                </g>
            </g>
        </g>
    </g>
</svg>