<?xml version="1.0" encoding="UTF-8"?>
<svg width="24px" height="24px" viewBox="0 0 24 24" version="1.1" xmlns="http://www.w3.org/2000/svg" xmlns:xlink="http://www.w3.org/1999/xlink">
    <!-- Generator: Sketch 56.3 (81716) - https://sketch.com -->
    <title>picture-polaroid-landscape</title>
    <desc>Created with Sketch.</desc>
    <g id="Version-1" stroke="none" stroke-width="1" fill="none" fill-rule="evenodd">
        <g id="Desktop" transform="translate(-672.000000, -237.000000)" fill="#D1CEE8" fill-rule="nonzero">
            <g id="Group-3-Copy-2" transform="translate(672.000000, 237.000000)">
                <g id="picture-polaroid-landscape">
                    <path d="M12.8,8.2 C12.7167418,7.80282877 12.3707835,7.51539873 11.9650809,7.50633008 C11.5593782,7.49726143 11.2009221,7.76894574 11.1,8.162 L9.5,11.666 C9.46433239,11.7443679 9.39084706,11.7988663 9.30549946,11.810246 C9.22015187,11.8216257 9.13495466,11.7882849 9.08,11.722 L7.988,10.408 C7.74977659,10.0852352 7.36202954,9.90802851 6.96207987,9.93913797 C6.56213021,9.97024742 6.20644858,10.2052805 6.021,10.561 L3.535,14.7 C3.44242701,14.8544907 3.4400939,15.0468301 3.52889221,15.2035208 C3.61769052,15.3602115 3.78389692,15.457 3.964,15.457 L14.964,15.457 C15.1299494,15.457 15.2850669,15.3745889 15.3780418,15.2371303 C15.4710167,15.0996717 15.4897332,14.9250397 15.428,14.771 L12.8,8.2 Z" id="Path"></path>
                    <circle id="Oval" cx="5.964" cy="5.5" r="2"></circle>
                    <path d="M17,19 C18.1045695,19 19,18.1045695 19,17 L19,2 C19,0.8954305 18.1045695,0 17,0 L2,0 C0.8954305,0 0,0.8954305 0,2 L0,17 C0,18.1045695 0.8954305,19 2,19 L17,19 Z M2,2.5 C2,2.22385763 2.22385763,2 2.5,2 L16.5,2 C16.7761424,2 17,2.22385763 17,2.5 L17,16.5 C17,16.7761424 16.7761424,17 16.5,17 L2.5,17 C2.22385763,17 2,16.7761424 2,16.5 L2,2.5 Z" id="Shape"></path>
                    <path d="M23.992,9.235 C24.0397705,8.70668213 23.8756948,8.18102799 23.5358728,7.77369173 C23.1960509,7.36635547 22.7083234,7.11070917 22.18,7.063 L21.18,6.972 C20.6299244,6.92229437 20.1437056,7.32792439 20.094,7.878 C20.0442944,8.42807561 20.4499244,8.91429437 21,8.964 L21.5,9.008 C21.6322706,9.01992015 21.7543647,9.08397304 21.8393486,9.18602867 C21.9243324,9.28808431 21.965223,9.41975704 21.953,9.552 L20.863,21.5 C20.8376472,21.774644 20.5946865,21.9768875 20.32,21.952 L6.877,20.728 C6.51439233,20.6833393 6.15629007,20.8399808 5.94295318,21.1365719 C5.7296163,21.433163 5.69500507,21.8224904 5.85267587,22.1520641 C6.01034668,22.4816378 6.33520051,22.6989942 6.7,22.719 L20.641,23.993 C21.1694865,24.0413404 21.6955183,23.8776562 22.1032692,23.5379888 C22.5110202,23.1983214 22.7670558,22.7105226 22.815,22.182 L23.992,9.235 Z" id="Path"></path>
                </g>
            </g>
        </g>
    </g>
</svg>