<?xml version="1.0" encoding="UTF-8"?>
<svg width="24px" height="24px" viewBox="0 0 24 24" version="1.1" xmlns="http://www.w3.org/2000/svg" xmlns:xlink="http://www.w3.org/1999/xlink">
    <!-- Generator: Sketch 56.3 (81716) - https://sketch.com -->
    <title>responsive-design</title>
    <desc>Created with Sketch.</desc>
    <g id="Version-1" stroke="none" stroke-width="1" fill="none" fill-rule="evenodd">
        <g id="Desktop" transform="translate(-400.000000, -237.000000)" fill="#D1CEE8" fill-rule="nonzero">
            <g id="Group-3-Copy" transform="translate(400.000000, 237.000000)">
                <g id="responsive-design">
                    <path d="M20.5,12 C21.0522847,12 21.5,11.5522847 21.5,11 L21.5,7.088 C21.522293,5.6837796 20.4041515,4.52627952 19,4.5 L8.5,4.5 C7.94771525,4.5 7.5,4.94771525 7.5,5.5 C7.5,6.05228475 7.94771525,6.5 8.5,6.5 L19,6.5 C19.299037,6.52702914 19.5213814,6.78850618 19.5,7.088 L19.5,11 C19.5,11.5522847 19.9477153,12 20.5,12 Z" id="Path"></path>
                    <path d="M10.75,18.5 C10.8880712,18.5 11,18.6119288 11,18.75 L11,20.75 C11,20.8880712 10.8880712,21 10.75,21 L9,21 C8.44771525,21 8,21.4477153 8,22 C8,22.5522847 8.44771525,23 9,23 L15,23 C15.5522847,23 16,22.5522847 16,22 C16,21.4477153 15.5522847,21 15,21 L13.25,21 C13.1119288,21 13,20.8880712 13,20.75 L13,18.75 C13,18.6119288 13.1119288,18.5 13.25,18.5 L15.5,18.5 C15.7761424,18.5 16,18.2761424 16,18 L16,15.889 C15.999965,15.6340205 16.0353018,15.3802687 16.105,15.135 C16.1472724,14.9842506 16.1164919,14.8224038 16.0218322,14.6976966 C15.9271726,14.5729894 15.7795641,14.4998215 15.623,14.5 L5,14.5 C4.72385763,14.5 4.5,14.2761424 4.5,14 L4.5,12.5 C4.5,11.9477153 4.05228475,11.5 3.5,11.5 C2.94771525,11.5 2.5,11.9477153 2.5,12.5 L2.5,15.912 C2.47770705,17.3162204 3.59584855,18.4737205 5,18.5 L10.75,18.5 Z" id="Path"></path>
                    <path d="M1.833,9.75 L5.167,9.75 C6.05631263,9.73357497 6.76448897,9.00034628 6.75,8.111 L6.75,1.889 C6.76448897,0.999653722 6.05631263,0.266425026 5.167,0.25 L1.833,0.25 C0.943687372,0.266425026 0.235511029,0.999653722 0.25,1.889 L0.25,8.111 C0.235511029,9.00034628 0.943687372,9.73357497 1.833,9.75 L1.833,9.75 Z M1.75,1.889 C1.75,1.804 1.805,1.75 1.833,1.75 L5.167,1.75 C5.195,1.75 5.25,1.804 5.25,1.889 L5.25,8.111 C5.25,8.196 5.195,8.25 5.167,8.25 L1.833,8.25 C1.805,8.25 1.75,8.196 1.75,8.111 L1.75,1.889 Z" id="Shape"></path>
                    <path d="M18.833,14.25 C17.9436874,14.266425 17.235511,14.9996537 17.25,15.889 L17.25,22.25 C17.2745198,23.1006323 17.9822806,23.7712837 18.833,23.75 L22.167,23.75 C23.0177194,23.7712837 23.7254802,23.1006323 23.75,22.25 L23.75,15.889 C23.764489,14.9996537 23.0563126,14.266425 22.167,14.25 L18.833,14.25 Z M22.25,15.889 L22.25,21 C22.25,21.1380712 22.1380712,21.25 22,21.25 L19,21.25 C18.8619288,21.25 18.75,21.1380712 18.75,21 L18.75,15.889 C18.75,15.804 18.805,15.75 18.833,15.75 L22.167,15.75 C22.2,15.75 22.25,15.8 22.25,15.889 Z" id="Shape"></path>
                </g>
            </g>
        </g>
    </g>
</svg>